<?xml version="1.0" standalone="no"?>
<!DOCTYPE svg PUBLIC "-//W3C//DTD SVG 20010904//EN"
 "http://www.w3.org/TR/2001/REC-SVG-20010904/DTD/svg10.dtd">
<svg version="1.0" xmlns="http://www.w3.org/2000/svg"
 width="1280.000000pt" height="591.000000pt" viewBox="0 0 1280.000000 591.000000"
 preserveAspectRatio="xMidYMid meet">

<g transform="translate(0.000000,591.000000) scale(0.100000,-0.100000)"
fill="#000000" stroke="none">
<path d="M4423 5040 c8 -326 37 -519 102 -675 50 -119 250 -497 442 -835 94
-165 117 -199 128 -188 14 14 25 146 25 308 0 468 -116 823 -405 1235 -70 99
-155 223 -191 276 -35 53 -74 104 -85 115 l-22 19 6 -255z"/>
<path d="M669 4488 c49 -66 366 -384 581 -583 74 -68 324 -282 380 -325 25
-19 47 -37 50 -41 3 -3 39 -30 80 -61 207 -151 375 -255 515 -318 220 -99 892
-322 1550 -514 258 -75 578 -166 740 -211 94 -26 196 -54 229 -63 l58 -17
-108 -40 -109 -40 -320 -6 c-503 -11 -1544 -10 -1835 1 -280 11 -467 24 -564
41 -225 39 -609 202 -1071 454 -66 36 -127 68 -135 72 -8 4 -81 44 -161 90
-81 46 -151 83 -155 83 -15 0 167 -105 456 -262 320 -175 599 -306 835 -394
217 -81 354 -98 910 -115 397 -12 1884 -6 1919 7 9 3 16 2 16 -3 0 -5 -65 -40
-144 -77 -80 -38 -182 -90 -227 -117 -45 -27 -84 -49 -86 -49 -10 0 -234 -152
-329 -223 -55 -41 -149 -116 -209 -167 -84 -72 -117 -95 -149 -101 -23 -4
-128 -11 -234 -15 -256 -9 -239 -27 22 -22 108 2 195 0 194 -4 -2 -4 -48 -54
-103 -110 -257 -263 -459 -518 -649 -817 -84 -133 -95 -164 -73 -207 46 -89
154 -105 209 -31 14 17 71 109 128 202 230 378 375 579 593 815 75 81 205 200
217 197 12 -2 79 17 133 39 125 53 184 81 522 253 126 64 149 72 230 82 96 12
298 8 565 -12 198 -14 292 -9 347 19 100 52 161 139 170 243 11 119 -65 213
-210 260 -55 18 -90 22 -175 21 -90 -1 -228 -18 -307 -38 -16 -4 -29 8 -62 54
-69 98 -218 276 -350 418 -314 338 -711 659 -1098 886 -55 32 -107 63 -115 68
-8 5 -69 37 -135 71 -322 167 -658 288 -1030 373 -57 13 -655 123 -1225 226
-58 10 -143 26 -190 34 -128 23 -127 24 -91 -26z m3636 -2657 c-10 -9 -313
-162 -396 -199 -68 -31 -149 -62 -149 -58 0 2 32 26 72 52 89 58 267 145 379
183 92 32 108 36 94 22z"/>
<path d="M3316 3961 c5 -4 63 -36 129 -71 66 -34 126 -67 133 -72 6 -6 12 -7
12 -2 0 9 -23 23 -177 105 -87 46 -119 60 -97 40z"/>
<path d="M3621 3797 c2 -1 13 -9 24 -17 19 -14 19 -14 6 3 -7 9 -18 17 -24 17
-6 0 -8 -1 -6 -3z"/>
<path d="M3670 3766 c0 -3 9 -10 20 -16 11 -6 20 -8 20 -6 0 3 -9 10 -20 16
-11 6 -20 8 -20 6z"/>
<path d="M3770 3700 c35 -24 54 -31 30 -11 -14 11 -29 21 -35 21 -5 0 -3 -5 5
-10z"/>
<path d="M115 3173 c16 -16 165 -103 175 -103 6 0 10 -4 10 -8 0 -9 70 -45 76
-39 2 2 -54 36 -124 77 -143 83 -151 87 -137 73z"/>
<path d="M5470 2568 l1 -73 66 -30 c91 -40 163 -112 192 -190 30 -79 25 -187
-13 -270 -39 -85 -133 -174 -218 -205 l-28 -10 0 -190 0 -190 3640 0 3640 0 0
615 0 615 -3640 0 -3640 0 0 -72z m2126 -186 c60 -31 86 -79 87 -155 1 -64
-10 -95 -47 -135 -20 -23 -21 -24 -1 -34 38 -22 64 -61 76 -112 15 -69 -6
-149 -52 -194 -57 -56 -129 -72 -320 -72 -143 0 -168 2 -173 16 -3 9 -6 170
-6 359 0 287 2 345 14 352 8 4 97 6 198 3 162 -5 188 -8 224 -28z m1236 0 c27
-13 55 -37 66 -55 41 -68 33 -178 -16 -230 -25 -26 -26 -29 -9 -38 85 -48 110
-172 55 -271 -47 -83 -128 -108 -354 -108 -138 0 -163 2 -168 16 -9 22 -7 699
1 708 4 4 91 6 193 4 170 -3 189 -5 232 -26z m1109 8 c130 -25 183 -80 182
-189 -2 -148 -74 -201 -288 -210 l-130 -6 -3 -142 -3 -143 -54 0 -55 0 0 343
c0 189 3 347 7 350 10 11 285 8 344 -3z m1099 -39 l0 -49 -45 -4 c-24 -2 -49
-2 -55 0 -11 4 -14 85 -3 95 3 4 28 7 55 7 l48 0 0 -49z m1196 -51 c1 -30 2
-61 3 -67 1 -9 19 -13 56 -13 l55 0 0 -35 0 -35 -55 0 -55 0 -2 -162 c-1 -169
0 -210 8 -218 3 -2 26 -7 52 -10 46 -5 47 -6 47 -40 0 -34 -2 -35 -40 -38 -22
-2 -64 1 -93 8 -79 17 -82 28 -82 265 l0 195 -45 0 c-45 0 -45 0 -45 35 0 35
0 35 45 35 l45 0 0 63 c0 35 3 67 7 71 4 4 27 6 52 4 l45 -3 2 -55z m-6056
-126 c0 -60 2 -65 16 -53 26 21 118 17 151 -7 45 -33 58 -70 57 -159 0 -88
-17 -133 -59 -161 -34 -22 -94 -28 -130 -13 -16 7 -49 11 -72 10 l-43 -3 0
219 c0 121 3 223 7 226 3 4 21 7 40 7 l33 0 0 -66z m4508 14 l3 -38 -46 0
c-60 0 -106 -22 -130 -63 -18 -28 -20 -55 -23 -209 l-4 -178 -49 0 -49 0 0
261 0 260 48 -3 c40 -3 47 -6 50 -26 l3 -22 29 20 c43 31 71 39 120 37 44 -2
45 -3 48 -39z m1042 26 c66 -27 70 -42 70 -294 l0 -220 -50 0 -50 0 0 200 c0
166 -3 205 -16 225 -31 48 -133 44 -184 -7 l-30 -30 0 -194 0 -194 -55 0 -55
0 0 260 0 260 50 0 c48 0 50 -1 50 -27 l0 -26 24 22 c13 12 36 26 52 31 49 14
151 11 194 -6z m-690 -254 l0 -260 -55 0 -55 0 0 253 c0 140 3 257 7 260 3 4
28 7 55 7 l48 0 0 -260z m-2920 235 c32 -17 60 -61 60 -95 0 -32 -26 -75 -62
-104 l-32 -25 19 -23 c11 -13 31 -36 44 -51 l25 -28 11 38 c10 35 13 38 52 41
29 2 42 -1 46 -12 6 -14 -10 -88 -27 -128 -5 -11 4 -29 29 -57 46 -51 42 -71
-17 -71 -28 0 -49 7 -63 20 l-22 20 -49 -22 c-71 -33 -174 -32 -233 2 -81 47
-105 144 -53 216 16 21 41 45 55 53 32 17 32 17 7 66 -34 66 -22 122 32 155
41 25 135 27 178 5z m-1578 -184 c21 -63 42 -119 47 -124 4 -4 27 45 52 115
l44 123 35 0 c26 0 34 -4 32 -15 -4 -20 -119 -314 -144 -367 -23 -49 -70 -76
-126 -71 -32 3 -37 6 -37 28 0 22 5 25 37 28 37 3 68 30 68 60 0 7 -25 76 -55
152 -30 77 -58 152 -61 166 -6 24 -5 25 31 22 l38 -3 39 -114z"/>
<path d="M7300 2214 l0 -96 101 4 c91 3 103 6 120 27 21 25 26 90 9 121 -14
27 -64 40 -151 40 l-79 0 0 -96z"/>
<path d="M7302 1898 l3 -113 90 1 c133 1 175 28 175 113 0 31 -7 49 -29 73
-29 33 -30 33 -135 36 l-107 4 3 -114z"/>
<path d="M8540 2215 l0 -95 85 0 c123 0 155 20 155 95 0 75 -32 95 -155 95
l-85 0 0 -95z"/>
<path d="M8542 1898 l3 -113 91 1 c130 2 174 29 174 106 0 58 -10 76 -54 98
-33 15 -62 20 -129 20 l-88 0 3 -112z"/>
<path d="M9704 2307 c-2 -7 -3 -65 -2 -128 l3 -114 103 2 c120 3 163 18 186
68 34 72 12 143 -54 169 -52 21 -228 23 -236 3z"/>
<path d="M6201 2061 c-36 -36 -39 -156 -5 -208 20 -31 83 -32 110 -2 15 17 19
37 19 104 0 67 -4 87 -19 104 -25 27 -79 28 -105 2z"/>
<path d="M8008 2129 c-23 -13 -23 -41 0 -69 16 -19 22 -21 40 -11 31 16 40 60
17 78 -22 15 -34 16 -57 2z"/>
<path d="M7962 1902 c-47 -40 -51 -75 -14 -111 16 -17 42 -33 57 -37 31 -8
110 16 110 33 0 5 -27 39 -61 76 l-61 66 -31 -27z"/>
<path d="M3820 625 l1 -625 4489 0 4490 0 0 625 0 625 -4490 0 -4490 0 0 -625z
m7168 370 c70 -28 122 -106 122 -182 0 -21 -5 -23 -54 -23 l-53 0 -7 38 c-6
41 -44 88 -83 103 -40 15 -116 10 -153 -9 -58 -32 -90 -125 -90 -267 0 -196
56 -285 177 -285 87 0 144 55 157 151 l7 50 52 -3 52 -3 -3 -45 c-7 -99 -70
-184 -159 -216 -46 -16 -164 -18 -215 -4 -54 15 -117 68 -144 120 -34 65 -50
210 -36 327 18 151 72 229 180 260 60 17 194 10 250 -12z m-6246 -23 c74 -37
93 -71 93 -169 0 -91 -13 -118 -75 -160 -50 -35 -94 -45 -222 -50 l-117 -5 -3
-142 -3 -141 -50 0 -50 0 -3 348 -2 349 192 -4 c178 -3 197 -5 240 -26z m1018
-22 l0 -50 -55 0 -55 0 0 50 0 50 55 0 55 0 0 -50z m3990 -300 l0 -350 -46 0
c-37 0 -47 4 -51 20 -5 19 -6 19 -34 -2 -36 -27 -134 -36 -190 -18 -42 14
-103 74 -120 117 -5 14 -14 56 -19 92 -19 133 23 260 100 306 47 27 182 29
223 3 14 -10 29 -18 33 -18 3 0 5 42 4 93 -1 50 -2 95 -1 100 0 4 24 7 51 7
l50 0 0 -350z m-2790 240 l0 -70 56 0 55 0 -3 -32 c-3 -31 -4 -32 -53 -32
l-50 -1 -3 -170 c-1 -93 0 -180 3 -192 4 -18 13 -22 53 -25 47 -3 47 -3 50
-42 l3 -38 -78 3 c-54 3 -88 10 -106 22 l-27 17 0 210 c0 161 -3 210 -12 211
-7 1 -20 3 -28 4 -8 1 -25 3 -37 4 -18 1 -23 7 -23 30 0 28 2 30 48 33 l47 3
3 68 3 67 49 0 50 0 0 -70z m5360 0 l0 -70 56 0 55 0 -3 -32 c-2 -21 -9 -33
-18 -34 -8 -1 -32 -2 -53 -2 l-37 -2 2 -187 3 -188 50 -5 c50 -5 50 -5 53 -43
l3 -37 -71 0 c-82 0 -135 20 -144 53 -3 12 -6 109 -6 215 l0 192 -22 1 c-13 1
-27 1 -31 0 -21 -3 -48 22 -45 42 2 18 11 23 48 27 l45 5 3 68 3 67 54 0 55 0
0 -70z m-6910 -90 l0 -40 -40 0 c-54 0 -104 -22 -127 -56 -15 -24 -19 -56 -23
-214 l-5 -185 -50 0 -50 0 -3 258 -2 257 50 0 c48 0 50 -1 50 -27 l0 -27 28
27 c35 34 67 46 125 46 l47 1 0 -40z m1040 22 c64 -31 70 -58 70 -305 l0 -218
-52 3 -53 3 -5 213 c-6 245 -5 242 -94 242 -42 0 -103 -22 -118 -42 -1 -2 -4
-95 -7 -208 l-6 -205 -52 -3 -53 -3 0 260 0 261 50 0 c38 0 50 -4 50 -15 0
-19 9 -19 29 -1 44 38 181 49 241 18z m1665 7 c46 -13 73 -33 88 -69 6 -14 14
-108 17 -210 5 -182 5 -185 28 -188 17 -3 22 -10 22 -32 0 -25 -5 -30 -33 -35
-39 -8 -104 16 -113 40 -6 14 -8 14 -23 1 -48 -44 -159 -60 -225 -32 -55 23
-76 59 -76 132 0 99 22 118 208 175 78 24 102 45 102 91 0 50 -47 75 -122 65
-47 -6 -66 -22 -71 -57 -3 -22 -10 -25 -47 -28 -52 -4 -62 5 -54 45 9 44 43
82 89 98 48 17 155 19 210 4z m796 -6 c64 -25 69 -45 69 -303 l0 -220 -50 0
-50 0 0 204 c0 191 -1 205 -21 230 -18 23 -28 26 -80 26 -51 0 -63 -4 -91 -29
l-33 -29 -5 -199 -5 -198 -50 0 -50 0 -3 258 -2 257 50 0 c45 0 50 -2 50 -22
0 -20 1 -20 19 -4 50 45 176 60 252 29z m-3151 -263 l0 -260 -55 0 -55 0 0
260 0 260 55 0 55 0 0 -260z m5780 50 c0 -197 1 -211 20 -230 24 -24 85 -27
135 -6 58 25 65 51 65 261 l0 185 55 0 55 0 -2 -257 -3 -258 -47 -3 c-42 -3
-48 -1 -48 17 0 19 -2 19 -52 -7 -104 -54 -249 -28 -275 48 -8 23 -12 111 -12
248 l-1 212 55 0 55 0 0 -210z"/>
<path d="M4422 803 l3 -128 102 2 c151 3 197 33 197 129 1 50 -2 58 -28 79
-39 31 -98 45 -196 45 l-81 0 3 -127z"/>
<path d="M9463 748 c-41 -20 -58 -73 -58 -183 0 -112 17 -162 61 -186 30 -15
94 -15 124 1 38 20 60 86 60 179 0 149 -31 202 -119 200 -25 0 -56 -5 -68 -11z"/>
<path d="M8017 541 c-86 -29 -117 -56 -117 -103 0 -93 151 -105 193 -15 17 35
24 148 10 146 -5 -1 -43 -13 -86 -28z"/>
</g>
</svg>
